<?xml version="1.0" standalone="no"?><!DOCTYPE svg PUBLIC "-//W3C//DTD SVG 1.1//EN" "http://www.w3.org/Graphics/SVG/1.1/DTD/svg11.dtd"><svg t="1661253907620" class="icon" viewBox="0 0 1024 1024" version="1.1" xmlns="http://www.w3.org/2000/svg" p-id="3477" xmlns:xlink="http://www.w3.org/1999/xlink" width="200" height="200"><defs><style type="text/css"></style></defs><path d="M0 448V384h1024v64a511.872 511.872 0 0 1-263.936 448H263.936A511.872 511.872 0 0 1 0 448z m288 512h448a32 32 0 1 1 0 64h-448a32 32 0 1 1 0-64zM64 320a256.128 256.128 0 0 1 495.872 0H64z m359.808-235.904A320 320 0 0 1 960 320H625.536a320.576 320.576 0 0 0-201.728-235.904z" p-id="3478"></path></svg>