<?xml version="1.0" standalone="no"?><!DOCTYPE svg PUBLIC "-//W3C//DTD SVG 1.1//EN" "http://www.w3.org/Graphics/SVG/1.1/DTD/svg11.dtd"><svg t="1661329351162" class="icon" viewBox="0 0 1024 1024" version="1.1" xmlns="http://www.w3.org/2000/svg" p-id="2674" xmlns:xlink="http://www.w3.org/1999/xlink" width="225" height="225"><defs><style type="text/css"></style></defs><path d="M943.306166 725.731826c-20.413935 23.984251-45.945425 46.26572-76.521814 66.217121l-0.837064 0.552585-0.048095 0.023536c-91.415013 59.352783-216.027102 92.034113-350.997096 92.034113-115.321492 0-227.125881-24.961508-314.853921-70.27453-49.583279-25.628704-89.813538-57.193607-119.385041-92.5253 6.513344 64.325028 55.417147 127.347386 145.183614 173.727717 83.010599 42.893926 186.348152 64.009849 289.055348 64.009849 118.560256 0 236.258888-28.121478 321.002968-83.367733l0.169869-0.097214C902.503878 832.67858 937.654446 779.573081 943.306166 725.731826zM866.784352 660.807141l-0.837064 0.545422-0.048095 0.029676c-91.415013 59.353806-216.027102 92.027973-350.997096 92.027973-115.321492 0-227.125881-24.955368-314.853921-70.27453-49.583279-25.622564-89.813538-57.193607-119.385041-92.51916 6.513344 64.326051 55.417147 127.347386 145.183614 173.72874 83.010599 42.893926 186.348152 64.009849 289.055348 64.009849 118.560256 0 236.258888-28.127617 321.002968-83.367733l0.169869-0.103354c66.429968-43.348274 101.579513-96.454796 107.231233-150.301168C922.893254 618.567108 897.360741 640.853693 866.784352 660.807141zM866.784352 529.657148l-0.837064 0.551562-0.048095 0.030699c-91.415013 59.346643-216.027102 92.02695-350.997096 92.02695-115.321492 0-227.125881-24.954345-314.853921-70.27453-49.583279-25.622564-89.813538-57.193607-119.385041-92.5253 6.513344 64.332191 55.417147 127.353526 145.183614 173.727717 83.010599 42.900066 186.348152 64.009849 289.055348 64.009849 118.560256 0 236.258888-28.119431 321.002968-83.361593l0.169869-0.103354c66.429968-43.354414 101.579513-96.454796 107.231233-150.301168C922.893254 487.424278 897.360741 509.709841 866.784352 529.657148zM80.117712 305.240983c-4.244674 72.215742 45.094034 145.134495 145.729036 197.11845 178.827875 92.39841 451.897134 83.762729 610.058316-19.345604l0.169869-0.109494c69.340251-45.246507 104.999402-101.106746 108.176768-157.347654 0.205685-3.510964-0.193405-7.023974-0.254803-10.541077-0.048095-4.397147 0.169869-8.804527-0.302899-13.20679-6.683213-64.180741-55.587016-127.033231-145.145751-173.298951-83.010599-42.887786-186.324616-64.009849-289.019533-64.009849-7.725962 0-15.428388 0.449231-23.12979 0.685615-0.436952 0.01228-0.861624 0.030699-1.297552 0.035816-13.354146 0.443092-26.623357 1.238201-39.84345 2.37714-0.569982 0.054235-1.127683 0.103354-1.674129 0.157589-13.170974 1.183965-26.222221 2.687202-39.176254 4.567016-0.521886 0.079818-1.056052 0.163729-1.588171 0.243547-13.025665 1.921769-25.871227 4.16588-38.558178 6.797823-0.340761 0.067538-0.64366 0.13917-0.958838 0.212848C298.109562 93.180216 237.610676 115.842355 188.343599 147.948587l-0.12075 0.071631C118.978788 193.213513 83.295078 249.024633 80.117712 305.240983zM789.729395 458.69598l-0.035816 0.029676c-135.515417 88.3717-369.713366 95.842859-522.901281 16.677844C113.447818 396.178111 99.196233 260.334213 234.69937 171.963537c135.589095-88.456634 369.568057-95.915513 522.901281-16.696264C910.788565 234.42717 925.31849 370.258789 789.729395 458.69598zM252.626671 181.230598C126.110209 264.058025 139.634224 390.775055 282.657638 465.057875c143.69061 73.853032 362.071316 66.950831 489.10864-15.609513 126.517485-82.82231 113.115244-209.618135-30.029944-283.835464C598.166475 91.688235 379.676275 98.668207 252.626671 181.230598zM378.159736 422.225347l-19.757996 12.886495c-7.507998 4.88731-10.223852 4.90573-19.0908 0.332575l-2.753717-1.424442-7.228635-3.736091c-8.950859-4.621251-9.242502-6.204305-1.74576-11.086499l19.770276-12.893658c-16.799618-8.677637-76.230172-51.274804-63.045895-59.867506 1.333368-0.87902 1.333368-0.87902 4.91187-2.030239l51.364855-16.677844c1.274016-0.388856 5.980201-1.091868 8.006348-0.048095 3.019777 1.564635 19.042705 29.952172 46.343491 47.586808l86.127589-56.174394c-18.485003-23.384593-60.160171-62.943564-2.183735-100.760868 64.670905-42.178635 147.644665-20.842701 171.418115-9.618055l21.552875-14.06432c7.459902-4.875031 10.32209-4.967128 19.224854-0.364297l10.114358 5.210675c8.769734 4.542456 8.93858 6.216585 1.468444 11.073196l-21.553898 14.057157c13.633508 8.090259 67.546396 47.187719 52.578496 56.945967-1.77032 1.175779-3.614317 1.782599-6.41613 2.419096l-45.252647 11.498892c-3.104711 0.994654-5.955642 1.098008-7.993045 0.041956-3.019777-1.564635-17.574261-29.721929-39.054481-40.813544l-81.325214 53.046147c18.278295 25.888624 54.082756 66.453505-2.219551 103.173824C490.328421 450.795033 415.917688 435.984722 378.159736 422.225347zM491.650533 383.188262c25.471115-16.610306 12.771885-34.009582 6.635117-43.312458l-75.939553 49.547463C440.198697 394.606313 467.514833 398.925688 491.650533 383.188262zM535.982204 287.399639l71.718415-46.775326c-12.214183-3.694135-42.24515-12.019755-68.152193 4.876054C515.751441 261.025968 529.444301 278.813077 535.982204 287.399639z" p-id="2675"></path></svg>